# xmcd
#
# Track frame offsets: 
#        150
#        22255
#        42633
#        55368
#        68569
#        92366
#        111886
#        129996
#        146406
#        160118
#
# Disc length: 2379 seconds
#
# Revision: 0
# Processed by: cddbd v1.5.2PL0 Copyright (c) Steve Scherf et al.
# Submitted via: ExactAudioCopy v0.99pb3
#
DISCID=8509490a
DTITLE=The Mystix - Blue Morning
DYEAR=2007
DGENRE=Americana
TTITLE0=Yolanda
TTITLE1=Another King Of Love
TTITLE2=I'm A Love You
TTITLE3=Change In Jane
TTITLE4=New Orleans
TTITLE5=Blue Morning
TTITLE6=Rattled
TTITLE7=Which Side Of Heartache
TTITLE8=Without You
TTITLE9=Hi-Line
EXTD=
EXTT0=
EXTT1=
EXTT2=
EXTT3=
EXTT4=
EXTT5=
EXTT6=
EXTT7=
EXTT8=
EXTT9=
PLAYORDER=
